<svg width="74" height="70" viewBox="0 0 74 70" fill="none" xmlns="http://www.w3.org/2000/svg">
<rect x="1" y="1" width="72" height="68" rx="10" stroke="black" stroke-width="2"/>
<path d="M20.4961 32.4057C15.2599 32.4057 11 36.6656 11 41.9018C11 47.138 15.2599 51.3979 20.4961 51.3979C25.7322 51.3979 29.9921 47.1379 29.9921 41.9018C29.9921 36.6657 25.7322 32.4057 20.4961 32.4057ZM20.4961 48.4097C16.9076 48.4097 13.9883 45.4902 13.9883 41.9018C13.9883 38.3134 16.9076 35.394 20.4961 35.394C24.0845 35.394 27.0038 38.3135 27.0038 41.9018C27.0038 45.4901 24.0845 48.4097 20.4961 48.4097Z" fill="#41495A"/>
<path d="M20.4961 32.4057V35.394C24.0845 35.394 27.0039 38.3135 27.0039 41.9018C27.0039 45.4901 24.0844 48.4096 20.4961 48.4096V51.3979C25.7323 51.3979 29.9922 47.1379 29.9922 41.9018C29.9922 36.6657 25.7323 32.4057 20.4961 32.4057Z" fill="#141E32"/>
<path d="M30.0991 32.1936C29.5194 32.1936 28.9679 31.8542 28.7251 31.2877L25.9812 24.8861C25.6561 24.1276 26.0074 23.2492 26.7659 22.9241C27.5243 22.5991 28.4027 22.9503 28.7278 23.7087L31.4717 30.1103C31.7968 30.8689 31.4455 31.7472 30.6871 32.0723C30.4951 32.1546 30.2955 32.1936 30.0991 32.1936V32.1936Z" fill="#006E8C"/>
<path d="M52.504 32.4057C47.2678 32.4057 43.0079 36.6657 43.0079 41.9018C43.0079 47.1379 47.2678 51.3979 52.504 51.3979C57.7402 51.3979 62 47.138 62 41.9018C62 36.6656 57.7401 32.4057 52.504 32.4057V32.4057ZM52.504 48.4097C48.9156 48.4097 45.9962 45.4902 45.9962 41.9019C45.9962 38.3136 48.9156 35.3941 52.504 35.3941C56.0924 35.3941 59.0118 38.3134 59.0118 41.9018C59.0118 45.4902 56.0923 48.4097 52.504 48.4097V48.4097Z" fill="#41495A"/>
<path d="M47.3375 25.6973C46.9823 25.1754 46.3371 24.9329 45.7263 25.0919L29.7224 29.2529C29.4271 29.3297 29.1624 29.4949 28.9639 29.7265L19.3616 40.9293C18.9818 41.3724 18.8947 41.9959 19.1386 42.526C19.3824 43.0562 19.9125 43.3958 20.496 43.3958H34.8996C35.3769 43.3958 35.8255 43.1677 36.1068 42.7819L47.3096 27.4182C47.6815 26.9082 47.6928 26.2193 47.3375 25.6973V25.6973ZM23.7447 40.4077L29.6707 33.494L32.6336 40.4077H23.7447ZM35.2388 38.9005L32.1563 31.7078L42.4315 29.0361L35.2388 38.9005Z" fill="#4BB4D2"/>
<path d="M31.6988 25.7917H25.2972C24.4721 25.7917 23.8031 25.1227 23.8031 24.2975C23.8031 23.4724 24.4721 22.8034 25.2972 22.8034H31.6988C32.524 22.8034 33.193 23.4724 33.193 24.2975C33.193 25.1227 32.524 25.7917 31.6988 25.7917Z" fill="#F7785A"/>
<path d="M45.7262 25.092L35.2388 27.8188V30.9064L42.4314 29.0363L35.2388 38.9006V43.3564C35.5839 43.2758 35.8935 43.0746 36.1068 42.7822L47.3095 27.4185C47.6815 26.9084 47.6927 26.2195 47.3374 25.6975C46.9822 25.1754 46.337 24.9329 45.7262 25.092Z" fill="#2691AF"/>
<path d="M53.8832 41.3271L45.8813 22.1225C45.5639 21.3607 44.689 21.0006 43.9274 21.3179C43.1657 21.6354 42.8055 22.51 43.1229 23.2717L51.1248 42.4764C51.4422 43.2381 52.317 43.5983 53.0786 43.281C53.8403 42.9636 54.2005 42.0889 53.8832 41.3271V41.3271Z" fill="#006E8C"/>
<path d="M50.7205 20.6242C50.4595 19.8415 49.6138 19.4181 48.8305 19.6793L44.0293 21.2796C43.2465 21.5405 42.8234 22.3867 43.0844 23.1696C43.3454 23.9523 44.1911 24.3757 44.9744 24.1144L49.7756 22.5142C50.5584 22.2532 50.9814 21.4071 50.7205 20.6242V20.6242Z" fill="#2691AF"/>
<path d="M52.5039 32.4057V35.394C56.0923 35.394 59.0117 38.3135 59.0117 41.9018C59.0117 45.4901 56.0922 48.4096 52.5039 48.4096V51.3979C57.7401 51.3979 62 47.1379 62 41.9018C62 36.6657 57.74 32.4057 52.5039 32.4057V32.4057Z" fill="#141E32"/>
</svg>
