<svg width="28" height="28" viewBox="0 0 28 28" fill="none" xmlns="http://www.w3.org/2000/svg">
<path d="M19.6766 23.4774L14 21.8368L8.32338 23.4774C8.27422 23.5759 8.25781 23.6743 8.25781 23.7891V27.1798H19.7422V23.7891C19.7422 23.6743 19.7258 23.5759 19.6766 23.4774Z" fill="#646D73"/>
<path d="M19.7422 27.1798V23.7891C19.7422 23.6743 19.7258 23.5759 19.6766 23.4774L14 21.8368V27.1798H19.7422Z" fill="#474F54"/>
<path d="M27.1797 1.64062H22.9882C22.9954 1.36352 23.0234 1.1025 23.0234 0.820312C23.0234 0.360883 22.6626 0 22.2031 0H5.79688C5.33745 0 4.97656 0.360883 4.97656 0.820312C4.97656 1.1025 5.00462 1.36352 5.01173 1.64062H0.820312C0.366898 1.64062 0 2.00752 0 2.46094V4.53895C0 9.11925 3.66909 12.84 8.19071 13.0796C9.1327 14.3765 10.2507 15.339 11.5227 15.8812C11.3258 19.868 9.04531 22.6406 8.50396 23.2149C8.42188 23.2805 8.35625 23.3789 8.32344 23.4773H19.6766C19.6437 23.3789 19.5782 23.2805 19.4961 23.2149C18.9383 22.6406 16.6742 19.8844 16.4773 15.8812C17.7496 15.3389 18.8743 14.3762 19.8171 13.0787C24.3348 12.8353 28 9.11668 28 4.53895V2.46094C28 2.00752 27.6331 1.64062 27.1797 1.64062V1.64062ZM1.64062 4.53895V3.28125H5.08211C5.29501 5.99255 5.88295 8.86408 7.11867 11.3043C4.02117 10.6068 1.64062 7.84454 1.64062 4.53895V4.53895ZM26.3594 4.53895C26.3594 7.84284 23.981 10.6038 20.8858 11.3029C22.1117 8.86271 22.7029 6.01896 22.9179 3.28125H26.3594V4.53895Z" fill="#FED843"/>
<path d="M27.1797 1.64062H22.9882C22.9954 1.36352 23.0234 1.1025 23.0234 0.820312C23.0234 0.360883 22.6626 0 22.2031 0H14V23.4773H19.6766C19.6437 23.3789 19.5782 23.2805 19.4961 23.2149C18.9383 22.6406 16.6742 19.8844 16.4773 15.8812C17.7496 15.3389 18.8743 14.3762 19.8171 13.0787C24.3348 12.8353 28 9.11668 28 4.53895V2.46094C28 2.00752 27.6331 1.64062 27.1797 1.64062V1.64062ZM26.3594 4.53895C26.3594 7.84284 23.981 10.6038 20.8858 11.3029C22.1118 8.86271 22.703 6.01896 22.9179 3.28125H26.3594V4.53895Z" fill="#FABE2C"/>
<path d="M15.309 10.4342L14 9.75406L12.691 10.4342C12.417 10.5752 12.0821 10.5519 11.8306 10.3701C11.5791 10.1875 11.4525 9.87825 11.5038 9.57222L11.7441 8.11502L10.6947 7.07924C10.4663 6.85655 10.3965 6.5264 10.4896 6.24131C10.5858 5.94649 10.8405 5.73021 11.1481 5.68378L12.6061 5.46426L13.2662 4.14487C13.545 3.58892 14.455 3.58892 14.7338 4.14487L15.3939 5.46426L16.8518 5.68378C17.1594 5.73026 17.4142 5.94655 17.5103 6.24131C17.6065 6.5369 17.5279 6.86136 17.3052 7.07924L16.2558 8.11502L16.4962 9.57222C16.5475 9.87825 16.4209 10.1875 16.1693 10.3701C15.9195 10.5512 15.5852 10.5779 15.309 10.4342V10.4342Z" fill="#FABE2C"/>
<path d="M15.309 10.4341C15.5853 10.5778 15.9195 10.5511 16.1693 10.37C16.4209 10.1874 16.5475 9.87816 16.4962 9.57213L16.2559 8.11492L17.3053 7.07914C17.5279 6.86127 17.6065 6.53681 17.5103 6.24122C17.4142 5.9464 17.1595 5.73011 16.8518 5.68368L15.3939 5.46417L14.7338 4.14478C14.5944 3.8668 14.2972 3.72778 14 3.72778V9.75396L15.309 10.4341Z" fill="#FF9100"/>
<path d="M20.5625 28H7.4375C6.98409 28 6.61719 27.6331 6.61719 27.1797C6.61719 26.7263 6.98409 26.3594 7.4375 26.3594H20.5625C21.0159 26.3594 21.3828 26.7263 21.3828 27.1797C21.3828 27.6331 21.0159 28 20.5625 28Z" fill="#474F54"/>
<path d="M20.5625 26.3594H14V28H20.5625C21.0159 28 21.3828 27.6331 21.3828 27.1797C21.3828 26.7263 21.0159 26.3594 20.5625 26.3594Z" fill="#32393F"/>
</svg>
