<svg width="30" height="30" viewBox="0 0 30 30" fill="none" xmlns="http://www.w3.org/2000/svg">
<path d="M28.75 23.75H25.4212C24.88 21.9488 23.225 20.625 21.25 20.625C19.2751 20.625 17.6212 21.9488 17.0788 23.75H1.24998C0.55998 23.75 0 24.31 0 25C0 25.69 0.55998 26.25 1.24998 26.25H17.0787C17.62 28.0512 19.275 29.375 21.25 29.375C23.2249 29.375 24.8787 28.0512 25.4212 26.25H28.75C29.4412 26.25 29.9999 25.69 29.9999 25C29.9999 24.31 29.4412 23.75 28.75 23.75ZM21.25 26.875C20.2162 26.875 19.375 26.0338 19.375 25C19.375 23.9662 20.2162 23.125 21.25 23.125C22.2838 23.125 23.125 23.9662 23.125 25C23.125 26.0338 22.2837 26.875 21.25 26.875Z" fill="#F6F6F6"/>
<path d="M28.75 3.75001H25.4212C24.8787 1.94878 23.225 0.625031 21.25 0.625031C19.2751 0.625031 17.6212 1.94878 17.0787 3.75001H1.24998C0.55998 3.75001 0 4.30999 0 4.99999C0 5.68999 0.55998 6.24997 1.24998 6.24997H17.0787C17.6212 8.05126 19.275 9.37501 21.25 9.37501C23.225 9.37501 24.8788 8.05126 25.4212 6.25003H28.75C29.4412 6.25003 30 5.69005 30 5.00005C30 4.31005 29.4412 3.75001 28.75 3.75001ZM21.25 6.87499C20.2162 6.87499 19.375 6.03376 19.375 4.99999C19.375 3.96622 20.2162 3.12499 21.25 3.12499C22.2838 3.12499 23.125 3.96622 23.125 4.99999C23.125 6.03376 22.2837 6.87499 21.25 6.87499Z" fill="#F6F6F6"/>
<path d="M28.75 13.75H12.9213C12.3787 11.9488 10.725 10.6251 8.75004 10.6251C6.77508 10.6251 5.12127 11.9488 4.57881 13.75H1.24998C0.55998 13.75 0 14.31 0 15C0 15.69 0.55998 16.25 1.24998 16.25H4.57875C5.12127 18.0512 6.77502 19.375 8.74998 19.375C10.7249 19.375 12.3788 18.0512 12.9212 16.25H28.75C29.4412 16.25 29.9999 15.69 29.9999 15C30 14.31 29.4412 13.75 28.75 13.75ZM8.74998 16.875C7.71621 16.875 6.87498 16.0338 6.87498 15C6.87498 13.9663 7.71621 13.125 8.74998 13.125C9.78375 13.125 10.625 13.9663 10.625 15C10.625 16.0338 9.78375 16.875 8.74998 16.875Z" fill="#F6F6F6"/>
</svg>
