<svg width="51" height="51" viewBox="0 0 51 51" fill="none" xmlns="http://www.w3.org/2000/svg">
<g clip-path="url(#clip0_113_783)">
<path d="M50.8037 21.8841L47.1206 13.044C46.7263 12.0929 45.7972 11.4732 44.7669 11.4749H2.55C1.14152 11.475 0 12.6165 0 14.025V32.725C0 34.1334 1.14152 35.275 2.55 35.275H48.45C49.8585 35.275 51 34.1334 51 32.725V22.8649C51.0009 22.5285 50.9337 22.1944 50.8037 21.8841Z" fill="#FDC536"/>
<path d="M29.75 15.725H21.25V35.2751H29.75V15.725Z" fill="#FEE8AF"/>
<path d="M50.8037 21.8841L47.4198 13.7632C43.458 23.6471 35.5666 31.4398 25.6327 35.2751H48.45C49.8585 35.2751 51 34.1335 51 32.7251V22.865C51.0009 22.5285 50.9337 22.1944 50.8037 21.8841Z" fill="#FDD15E"/>
<path d="M49.3 21.675H40.8V16.575H47.1368L49.3 21.675Z" fill="#3CB2CA"/>
<path d="M10.2 16.575H5.09998V21.675H10.2V16.575Z" fill="#3CB2CA"/>
<path d="M12.75 29.325C15.5669 29.325 17.85 31.6081 17.85 34.425C17.85 37.2418 15.5669 39.525 12.75 39.525C9.93317 39.525 7.65002 37.2418 7.65002 34.425C7.65002 31.6081 9.93317 29.325 12.75 29.325Z" fill="#42210B"/>
<path d="M38.25 29.325C41.0669 29.325 43.35 31.6081 43.35 34.425C43.35 37.2418 41.0669 39.525 38.25 39.525C35.4332 39.525 33.15 37.2418 33.15 34.425C33.15 31.6081 35.4332 29.325 38.25 29.325Z" fill="#42210B"/>
<path d="M12.75 32.725C13.6892 32.725 14.45 33.4857 14.45 34.425C14.45 35.3642 13.6893 36.125 12.75 36.125C11.8107 36.125 11.0499 35.3643 11.0499 34.425C11.0499 33.4858 11.8107 32.725 12.75 32.725Z" fill="#FDC536"/>
<path d="M38.25 32.725C39.1892 32.725 39.95 33.4857 39.95 34.425C39.95 35.3642 39.1893 36.125 38.25 36.125C37.3107 36.125 36.5499 35.3643 36.5499 34.425C36.5499 33.4858 37.3107 32.725 38.25 32.725Z" fill="#FDC536"/>
<path d="M21.25 25.075H0V26.775H21.25V25.075Z" fill="#E65848"/>
<path d="M51 25.075H29.75V26.775H51V25.075Z" fill="#E65848"/>
<path d="M6.02393 21.675H10.2V16.575H9.41284C8.57054 18.4492 7.42553 20.1722 6.02393 21.675Z" fill="#0B9FBD"/>
<path d="M17 16.575H11.9V21.675H17V16.575Z" fill="#3CB2CA"/>
<path d="M12.824 21.675H17V16.575H16.2129C15.3706 18.4492 14.2257 20.1722 12.824 21.675Z" fill="#0B9FBD"/>
<path d="M39.1 16.575H34V21.675H39.1V16.575Z" fill="#3CB2CA"/>
<path d="M34.924 21.675H39.1V16.575H38.3129C37.4706 18.4492 36.3257 20.1722 34.924 21.675Z" fill="#0B9FBD"/>
<path d="M46.1644 16.575C45.2804 18.3515 44.2587 20.0566 43.1095 21.675H49.3L47.1368 16.575H46.1644V16.575Z" fill="#0B9FBD"/>
<path d="M21.25 31.5546V35.275H29.75V20.587C28.3493 25.1574 25.3258 29.0581 21.25 31.5546Z" fill="#FDF5C9"/>
</g>
<defs>
<clipPath id="clip0_113_783">
<rect width="51" height="51" fill="white"/>
</clipPath>
</defs>
</svg>
