<svg width="94" height="81" viewBox="0 0 94 81" fill="none" xmlns="http://www.w3.org/2000/svg">
<path fill-rule="evenodd" clip-rule="evenodd" d="M62.8978 47.5336L73.7998 54.1602C80.2177 58.0613 88.5672 56.1996 92.7294 49.9477C93.5391 48.7313 94.0549 47.9142 93.9953 47.8908L59.1447 34.3018C58.9074 34.2094 62.8978 47.5336 62.8978 47.5336Z" fill="#5A9717"/>
<path fill-rule="evenodd" clip-rule="evenodd" d="M42.974 54.4362L25.8903 53.2309C25.6775 53.2158 25.5208 53.4265 25.5962 53.626L30.0174 65.3131C30.0299 65.3462 30.0363 65.3811 30.0363 65.4164V75.1054C30.0363 75.2669 29.9054 75.3979 29.7439 75.3979H26.7466C26.5851 75.3979 26.4541 75.5288 26.4541 75.6903V80.6605C26.4541 80.822 26.5851 80.9529 26.7466 80.9529H35.2989C35.4604 80.9529 35.5914 80.822 35.5914 80.6605V69.3934C35.5914 69.3351 35.6089 69.2781 35.6414 69.2299L40.2556 62.3932C41.8839 60.0006 42.8633 57.5029 43.2446 54.7674C43.2678 54.6004 43.1423 54.4481 42.974 54.4362Z" fill="#5A9717"/>
<path fill-rule="evenodd" clip-rule="evenodd" d="M64.2269 61.9926L47.7133 54.9319C47.6467 54.9034 47.572 54.9006 47.5036 54.9242L42.631 56.5924C42.4781 56.6446 42.3968 56.8109 42.449 56.9638L43.9142 61.2426C45.4204 65.8123 49.3061 69.118 54.0529 69.8706L56.553 70.2732C56.7202 70.3001 56.8296 70.4633 56.7914 70.6283L55.7408 75.1383C55.7099 75.2708 55.592 75.3644 55.4561 75.3644H52.9856C52.8241 75.3644 52.6932 75.4954 52.6932 75.6569V80.627C52.6932 80.7885 52.8241 80.9195 52.9856 80.9195H59.8655C60.0016 80.9195 60.1197 80.8255 60.1504 80.6928L64.3971 62.3272C64.4289 62.1894 64.3574 62.0483 64.2269 61.9926Z" fill="#5A9717"/>
<path fill-rule="evenodd" clip-rule="evenodd" d="M73.7359 60.5635C70.0842 57.4928 67.9531 52.9955 67.8891 48.2246L67.8816 47.6426C67.819 40.5258 62.7132 34.4211 55.7406 33.127L36.1485 29.3008C36.0685 29.2852 35.9986 29.2368 35.9558 29.1673L18.0514 0.13921C17.9039 -0.100108 17.5366 -0.0134681 17.5114 0.266502L16.8438 7.68093C16.8302 7.83159 16.7038 7.94711 16.5526 7.94711H12.6913C12.6137 7.94711 12.5394 7.97783 12.4846 8.03283L8.30655 12.2109C8.27123 12.2462 8.22727 12.2719 8.17907 12.2856L0.213341 14.529C0.0187221 14.5838 -0.0629511 14.8149 0.0542242 14.9799L2.46065 18.3678C2.46599 18.3754 2.47077 18.3831 2.47537 18.391C3.84376 20.8546 6.20953 22.5985 8.96784 23.1763L10.7595 23.5517C10.8868 23.5784 10.9812 23.686 10.9911 23.8157L12.7191 46.4594C12.7217 46.4925 12.7298 46.5247 12.743 46.5551L20.9906 65.2663C21.007 65.3035 21.0154 65.3436 21.0154 65.3842V75.1052C21.0154 75.2667 20.8845 75.3977 20.723 75.3977H17.7258C17.5643 75.3977 17.4334 75.5287 17.4334 75.6902V80.6603C17.4334 80.8218 17.5643 80.9528 17.7258 80.9528H26.2782C26.4397 80.9528 26.5707 80.8218 26.5707 80.6603V69.4046C26.5707 69.3463 26.588 69.2895 26.6205 69.2413L31.2347 62.3932C32.5571 60.4502 33.4809 58.2993 33.9811 56.0408C34.0157 55.8846 34.167 55.7843 34.3238 55.8161L53.2939 59.6758C53.3969 59.6967 53.4806 59.7712 53.5135 59.8711L53.6941 60.4219C55.1959 65.0011 59.0857 68.3146 63.8397 69.0684L67.2304 69.6134C67.3969 69.6401 67.5061 69.8016 67.4693 69.9662L66.3095 75.1363C66.2796 75.2698 66.1611 75.3648 66.0242 75.3648H63.5744C63.4129 75.3648 63.2819 75.4957 63.2819 75.6572V80.6274C63.2819 80.7889 63.4129 80.9198 63.5744 80.9198H70.4712C70.6081 80.9198 70.7265 80.8249 70.7565 80.6914L74.9892 61.8237C75.0131 61.7172 74.9756 61.6061 74.892 61.5359L73.7359 60.5635Z" fill="#91D04B"/>
<path fill-rule="evenodd" clip-rule="evenodd" d="M73.7337 60.5638C70.0819 57.4932 67.9509 52.9958 67.8869 48.2249L67.8793 47.6429C67.8168 40.5261 62.7109 34.4214 55.7383 33.1273L43.0054 30.6407C42.8247 30.6054 42.657 30.7437 42.657 30.9276V57.2733C42.657 57.4124 42.7548 57.5322 42.8912 57.5599L53.2918 59.6761C53.3948 59.6971 53.4785 59.7716 53.5114 59.8714L53.6921 60.4222C55.1938 65.0014 59.0836 68.3149 63.8376 69.0687L67.2283 69.6137C67.3948 69.6404 67.5041 69.8019 67.4673 69.9666L66.3075 75.1366C66.2775 75.2702 66.159 75.3651 66.0222 75.3651H63.5723C63.4108 75.3651 63.2799 75.4961 63.2799 75.6576V80.6277C63.2799 80.7892 63.4108 80.9202 63.5723 80.9202H70.4691C70.606 80.9202 70.7245 80.8253 70.7544 80.6917L74.9871 61.8241C75.011 61.7176 74.9735 61.6065 74.89 61.5362L73.7337 60.5638Z" fill="#91D04B"/>
<path fill-rule="evenodd" clip-rule="evenodd" d="M39.6802 45.005H34.71C34.5485 45.005 34.4176 45.136 34.4176 45.2975V52.7034C34.4176 53.641 34.3146 54.5665 34.1155 55.4682C34.08 55.6286 34.1803 55.7872 34.3412 55.8199L39.2137 56.8112C39.3702 56.843 39.5253 56.7437 39.5589 56.5875C39.8323 55.3205 39.9726 54.0201 39.9726 52.7033V45.2973C39.9726 45.1358 39.8417 45.005 39.6802 45.005Z" fill="#A1EE67"/>
<path fill-rule="evenodd" clip-rule="evenodd" d="M59.7263 16.6512H54.0567V22.8549H48.7799V16.6512H43.1102V11.3192H48.7799V5.08398H54.0567V11.3192H59.7263V16.6512Z" fill="#50C834"/>
<path fill-rule="evenodd" clip-rule="evenodd" d="M80.4782 16.5373H74.8086V22.7408H69.5316V16.5373H63.8621V11.2052H69.5316V4.96997H74.8086V11.2052H80.4782V16.5373Z" fill="#13B53D"/>
</svg>
