<svg width="260" height="100" viewBox="0 0 260 100" fill="none" xmlns="http://www.w3.org/2000/svg">
<path d="M3.86341 96.4211L11.8163 75.9354C18.0888 59.7784 31.5767 47.4992 48.2499 42.7666V42.7666C70.326 36.5005 93.9778 44.5272 107.68 62.9355L114.147 71.6235C121.636 81.6845 133.44 87.6133 145.983 87.6133V87.6133C161.112 87.6133 174.925 79.0116 181.599 65.4341L191.177 45.9504C202.664 22.5821 225.511 6.90057 251.447 4.58331L256.397 4.14105" stroke="#D6CF6E" stroke-width="2"/>
<path fill-rule="evenodd" clip-rule="evenodd" d="M2.27571 99.7918C3.53255 99.7918 4.55142 98.7706 4.55142 97.5108C4.55142 96.2511 3.53255 95.2299 2.27571 95.2299C1.01887 95.2299 0 96.2511 0 97.5108C0 98.7706 1.01887 99.7918 2.27571 99.7918Z" fill="#D6CF6E"/>
<path fill-rule="evenodd" clip-rule="evenodd" d="M44.9453 45.6191C46.2021 45.6191 47.221 44.5979 47.221 43.3381C47.221 42.0784 46.2021 41.0572 44.9453 41.0572C43.6885 41.0572 42.6696 42.0784 42.6696 43.3381C42.6696 44.5979 43.6885 45.6191 44.9453 45.6191Z" fill="#D6CF6E"/>
<path fill-rule="evenodd" clip-rule="evenodd" d="M172.385 81.5441C173.642 81.5441 174.661 80.5229 174.661 79.2632C174.661 78.0034 173.642 76.9822 172.385 76.9822C171.128 76.9822 170.109 78.0034 170.109 79.2632C170.109 80.5229 171.128 81.5441 172.385 81.5441Z" fill="#D6CF6E"/>
<path fill-rule="evenodd" clip-rule="evenodd" d="M215.055 19.9584C216.312 19.9584 217.33 18.9371 217.33 17.6774C217.33 16.4177 216.312 15.3965 215.055 15.3965C213.798 15.3965 212.779 16.4177 212.779 17.6774C212.779 18.9371 213.798 19.9584 215.055 19.9584Z" fill="#D6CF6E"/>
<path fill-rule="evenodd" clip-rule="evenodd" d="M257.724 4.56191C258.981 4.56191 260 3.54069 260 2.28095C260 1.02122 258.981 0 257.724 0C256.467 0 255.449 1.02122 255.449 2.28095C255.449 3.54069 256.467 4.56191 257.724 4.56191Z" fill="#D6CF6E"/>
<path fill-rule="evenodd" clip-rule="evenodd" d="M130.285 87.2465C131.541 87.2465 132.56 86.2253 132.56 84.9656C132.56 83.7058 131.541 82.6846 130.285 82.6846C129.028 82.6846 128.009 83.7058 128.009 84.9656C128.009 86.2253 129.028 87.2465 130.285 87.2465Z" fill="#D6CF6E"/>
<path fill-rule="evenodd" clip-rule="evenodd" d="M87.6149 48.4703C88.8717 48.4703 89.8906 47.4491 89.8906 46.1893C89.8906 44.9296 88.8717 43.9084 87.6149 43.9084C86.358 43.9084 85.3392 44.9296 85.3392 46.1893C85.3392 47.4491 86.358 48.4703 87.6149 48.4703Z" fill="#D6CF6E"/>
</svg>
