<svg width="12" height="12" viewBox="0 0 12 12" fill="none" xmlns="http://www.w3.org/2000/svg">
<path d="M6.51724 0C6.306 0 6.09828 0.0157241 5.89345 0.0434483C5.67993 0.0148966 5.47697 0 5.27586 0C3.75269 0 2.3791 0.738828 1.41517 1.91669C1.40545 1.92538 1.39841 1.93572 1.39055 1.94607C1.08331 2.32655 0.81931 2.75255 0.605793 3.21352C0.600414 3.22366 0.595655 3.23359 0.591724 3.24455C0.444621 3.56669 0.321931 3.90517 0.227586 4.25772C0.218276 4.27759 0.214138 4.29931 0.211448 4.32186C0.0746896 4.85483 0 5.41759 0 6C0 6.91117 0.180414 7.77497 0.50131 8.54917C0.504207 8.55745 0.506897 8.56531 0.510828 8.57317C0.703241 9.03207 0.94531 9.45869 1.22938 9.84455C1.23662 9.85448 1.24262 9.86503 1.25152 9.87352C1.5391 10.2594 1.86869 10.603 2.23221 10.896C2.24255 10.9074 2.25497 10.9159 2.26779 10.9248C3.12166 11.6017 4.15841 12 5.27586 12C5.47697 12 5.67993 11.9851 5.89345 11.9566C6.09828 11.9843 6.306 12 6.51724 12C9.42641 12 11.7931 9.30848 11.7931 6C11.7931 2.69152 9.42641 0 6.51724 0ZM4.33241 0.540828C4.26393 0.576414 4.19628 0.613655 4.12945 0.652345C4.092 0.674069 4.05434 0.694966 4.01752 0.717724C3.96021 0.752897 3.90414 0.790138 3.84828 0.827586H3.45C3.75248 0.686069 4.06821 0.574552 4.39738 0.505241C4.37524 0.516207 4.35435 0.529448 4.33241 0.540828ZM2.2469 9.51724H1.50497C1.32248 9.25945 1.16048 8.98241 1.01979 8.68966H1.80352C1.836 8.7629 1.86931 8.83552 1.90428 8.9071C1.91938 8.93793 1.9351 8.96834 1.95083 8.99897C1.99324 9.08214 2.0371 9.16386 2.08283 9.24435C2.09979 9.27435 2.11614 9.30476 2.13372 9.33455C2.17014 9.39641 2.20841 9.45683 2.2469 9.51724ZM0.924414 3.51724H1.71621C1.68 3.60766 1.64566 3.6991 1.61317 3.79179C1.60428 3.81745 1.59517 3.8429 1.58648 3.86855C1.55669 3.95752 1.52897 4.04731 1.50269 4.13793H0.694552C0.760345 3.92462 0.83731 3.71772 0.924414 3.51724ZM0.413793 6C0.413793 5.86055 0.421241 5.72317 0.429931 5.58621H1.25483C1.25462 5.58952 1.25462 5.59283 1.25441 5.59614C1.24676 5.72979 1.24138 5.86407 1.24138 6C1.24138 6.06931 1.24386 6.138 1.24593 6.2069H0.421862C0.419586 6.13779 0.413793 6.06972 0.413793 6ZM1.26952 6.62069C1.27738 6.70779 1.28752 6.79428 1.29869 6.88035C1.29952 6.88655 1.29993 6.89297 1.30076 6.89938C1.31607 7.01441 1.33469 7.12841 1.35559 7.24138H0.539586C0.499241 7.03821 0.467379 6.83152 0.446897 6.62069H1.26952ZM1.39779 4.55172C1.39241 4.57614 1.38786 4.60097 1.3829 4.62538C1.37731 4.65269 1.37152 4.67979 1.36614 4.7071C1.3409 4.83683 1.31855 4.96779 1.30097 5.10062C1.30014 5.10683 1.29972 5.11324 1.2989 5.11966C1.29641 5.13724 1.29497 5.15483 1.29269 5.17241H0.471517C0.498828 4.96179 0.533379 4.75407 0.580759 4.55172H1.39779ZM1.44724 7.65517C1.45366 7.68041 1.45966 7.70607 1.46628 7.7311C1.46876 7.74021 1.47083 7.74972 1.47331 7.75883C1.50745 7.88483 1.54572 8.00876 1.58669 8.13124C1.59538 8.1571 1.60448 8.18235 1.61338 8.208C1.62103 8.23076 1.62869 8.25352 1.63676 8.27586H0.839586C0.761172 8.07497 0.693724 7.86766 0.636207 7.65517H1.44724ZM2.13352 2.66566C2.11614 2.69524 2.09959 2.72586 2.08262 2.75586C2.0369 2.83634 1.99283 2.91828 1.95062 3.00124C1.9351 3.03186 1.91917 3.06207 1.90407 3.0931C1.90241 3.09641 1.90055 3.09993 1.8989 3.10345H1.12324C1.27986 2.80821 1.46028 2.532 1.66034 2.27586H2.3851C2.35986 2.31207 2.33441 2.34807 2.30979 2.3849C2.24876 2.47655 2.19 2.57007 2.13352 2.66566ZM2.73766 1.24138H3.3091C3.25779 1.28628 3.20648 1.33138 3.15662 1.37834C3.11503 1.41766 3.07469 1.45841 3.03414 1.49917C2.99317 1.54034 2.95262 1.58214 2.9129 1.62455C2.87462 1.66531 2.83634 1.70586 2.7991 1.74786C2.766 1.7851 2.73434 1.82379 2.70228 1.86207H2.0191C2.24131 1.63097 2.4811 1.42262 2.73766 1.24138ZM1.82566 9.93103H2.53572C2.5591 9.96166 2.58228 9.99228 2.60628 10.0223C2.66876 10.1009 2.7331 10.1774 2.7991 10.2521C2.83614 10.2941 2.87462 10.3347 2.9129 10.3754C2.95283 10.4181 2.99338 10.4599 3.03455 10.501C3.0511 10.5176 3.06683 10.5354 3.08359 10.5517H2.46124C2.23386 10.3657 2.02138 10.158 1.82566 9.93103ZM4.39717 11.4948C3.92276 11.3948 3.47441 11.2115 3.05855 10.9655H3.55903C3.58552 10.986 3.61283 11.0052 3.63952 11.0251C3.68234 11.057 3.72517 11.089 3.76883 11.1194C3.85014 11.1761 3.9331 11.2306 4.01731 11.2823C4.05414 11.3048 4.09179 11.3259 4.12924 11.3477C4.19607 11.3863 4.26372 11.4236 4.33221 11.4592C4.35434 11.4706 4.37524 11.4838 4.39717 11.4948ZM6.51724 11.5862C6.35276 11.5862 6.19035 11.5765 6.03021 11.5581L5.95014 11.5469C5.93897 11.5454 5.928 11.5436 5.91703 11.5421C5.84545 11.532 5.77448 11.5202 5.70414 11.5066C5.69814 11.5053 5.69235 11.5041 5.68655 11.5028C5.61807 11.4894 5.55021 11.4743 5.48297 11.4575C5.47283 11.455 5.46269 11.4521 5.45255 11.4494C5.38986 11.4333 5.32738 11.4163 5.26572 11.3975C5.2469 11.3917 5.22807 11.3851 5.20924 11.3791C5.15648 11.3623 5.10393 11.3452 5.052 11.3263C5.00979 11.311 4.96821 11.2941 4.92662 11.2775C4.89828 11.2663 4.86952 11.2558 4.84159 11.244C3.7291 10.7733 2.80655 9.84786 2.24524 8.66483C2.24007 8.65407 2.23531 8.64269 2.23034 8.63193C2.20034 8.56759 2.17117 8.50262 2.14324 8.43683C2.13207 8.41055 2.12172 8.38386 2.11097 8.35738C2.09007 8.30607 2.06938 8.25455 2.04993 8.20241C2.03731 8.1689 2.02552 8.13476 2.01352 8.10083C1.99717 8.0549 1.98103 8.00876 1.96593 7.96221C1.95352 7.92414 1.94172 7.88566 1.92993 7.84738C1.91648 7.80372 1.90345 7.75986 1.89103 7.71579C1.87945 7.67545 1.86848 7.63448 1.85793 7.59372C1.84676 7.55048 1.836 7.50683 1.82566 7.46317C1.81572 7.42138 1.80621 7.37959 1.7971 7.33738C1.78759 7.29331 1.7789 7.24903 1.77041 7.20455C1.76234 7.16214 1.75428 7.11972 1.74683 7.0769C1.73897 7.03117 1.73214 6.98524 1.72531 6.9391C1.7191 6.89731 1.71269 6.85572 1.70731 6.81352C1.7009 6.76386 1.69593 6.71359 1.69076 6.66352C1.68662 6.62441 1.68207 6.58552 1.67876 6.54621C1.67379 6.48869 1.67048 6.43076 1.66717 6.37262C1.66531 6.33993 1.66262 6.30766 1.66117 6.27497C1.65745 6.18393 1.65517 6.09228 1.65517 6C1.65517 5.90772 1.65745 5.81607 1.66117 5.72483C1.66262 5.69214 1.66531 5.65966 1.66717 5.62717C1.67048 5.56924 1.67379 5.5111 1.67876 5.45359C1.68207 5.41428 1.68662 5.37538 1.69076 5.33628C1.69593 5.28621 1.7011 5.23614 1.70731 5.18628C1.71269 5.14428 1.7191 5.10248 1.72531 5.06069C1.73214 5.01455 1.73897 4.96862 1.74683 4.9229C1.75407 4.88007 1.76214 4.83766 1.77041 4.79524C1.7789 4.75076 1.78779 4.70648 1.7971 4.66241C1.80621 4.62021 1.81572 4.57841 1.82566 4.53662C1.836 4.49297 1.84676 4.44931 1.85793 4.40607C1.86848 4.3651 1.87945 4.32434 1.89083 4.28379C1.90324 4.23972 1.91628 4.19586 1.92972 4.15221C1.94152 4.11372 1.95331 4.07545 1.96572 4.03738C1.98103 3.99083 1.99717 3.94469 2.01352 3.89855C2.02552 3.86462 2.03731 3.83069 2.04993 3.79717C2.06959 3.74503 2.09007 3.69352 2.11097 3.64221C2.12172 3.61572 2.13207 3.58903 2.14324 3.56276C2.17117 3.49697 2.20034 3.432 2.23034 3.36766C2.23552 3.35669 2.24007 3.34552 2.24524 3.33476C2.80655 2.15172 3.7291 1.22648 4.84159 0.755586C4.86972 0.743793 4.89828 0.733241 4.92662 0.722069C4.96821 0.705517 5.00979 0.688552 5.052 0.673241C5.10393 0.654414 5.15648 0.637448 5.20924 0.620483C5.22807 0.614483 5.24669 0.607862 5.26572 0.602069C5.32738 0.583241 5.38986 0.566069 5.45255 0.550138C5.46248 0.547862 5.47262 0.544759 5.48276 0.542276C5.55 0.525517 5.61786 0.510621 5.68634 0.496966C5.69234 0.495724 5.69814 0.494483 5.70393 0.493241C5.77428 0.479586 5.84524 0.467793 5.91683 0.457655C5.92779 0.456 5.93897 0.454345 5.94993 0.452897L6.03 0.441724C6.19035 0.423517 6.35276 0.413793 6.51724 0.413793C9.19821 0.413793 11.3793 2.91972 11.3793 6C11.3793 9.08028 9.19821 11.5862 6.51724 11.5862Z" fill="#858585"/>
<path d="M2.82761 6C2.82761 5.86986 2.83278 5.7391 2.84292 5.61124C2.85182 5.49745 2.76699 5.39772 2.65299 5.38862C2.53858 5.38035 2.43947 5.46476 2.43037 5.57855C2.4194 5.71697 2.41382 5.8589 2.41382 6V6.00435C2.41382 6.11855 2.50651 6.20897 2.62071 6.20897C2.73492 6.20897 2.82761 6.11421 2.82761 6Z" fill="#858585"/>
<path d="M10.0622 4.81902C10.0858 4.91295 10.17 4.97543 10.2627 4.97543C10.2794 4.97543 10.2964 4.97336 10.3134 4.96923C10.424 4.9413 10.4913 4.82895 10.4636 4.71805C10.4288 4.57985 10.388 4.44205 10.3421 4.3084C10.3051 4.2004 10.1876 4.14226 10.0794 4.17971C9.97136 4.21674 9.91363 4.33447 9.95067 4.44247C9.99267 4.56516 10.0301 4.69198 10.0622 4.81902Z" fill="#858585"/>
<path d="M9.2114 8.90049C9.12864 9.00228 9.04113 9.09973 8.95133 9.19056C8.87085 9.27166 8.87147 9.40263 8.95257 9.48311C8.99292 9.52304 9.04568 9.54311 9.09823 9.54311C9.1514 9.54311 9.20478 9.52263 9.24513 9.48187C9.34464 9.38152 9.44126 9.27373 9.53251 9.16159C9.60471 9.07283 9.59106 8.94249 9.50251 8.87049C9.41395 8.79828 9.28361 8.81194 9.2114 8.90049Z" fill="#858585"/>
<path d="M2.97023 7.17289C2.94272 7.06199 2.82996 6.99413 2.71947 7.02206C2.60858 7.04958 2.54113 7.16192 2.56865 7.27282C2.60299 7.41082 2.64354 7.54882 2.68927 7.68289C2.71865 7.76896 2.79892 7.82316 2.88499 7.82316C2.90713 7.82316 2.92968 7.81944 2.95182 7.81199C3.05982 7.77516 3.11775 7.65765 3.08092 7.54944C3.03913 7.42654 3.00189 7.29971 2.97023 7.17289Z" fill="#858585"/>
<path d="M8.55685 1.95498C8.43602 1.87616 8.30982 1.80354 8.18195 1.73919C8.07975 1.68747 7.95561 1.72905 7.90409 1.83064C7.85257 1.93264 7.89354 2.05719 7.99554 2.1085C8.10995 2.16623 8.22271 2.23119 8.33092 2.30174C8.36568 2.3245 8.40499 2.33526 8.44368 2.33526C8.51133 2.33526 8.57754 2.30216 8.61727 2.24133C8.67954 2.14574 8.65264 2.01747 8.55685 1.95498Z" fill="#858585"/>
<path d="M8.01809 9.87993C7.90305 9.9389 7.7843 9.99165 7.66512 10.0366C7.55816 10.0767 7.50416 10.1961 7.5445 10.303C7.57574 10.386 7.65437 10.4371 7.73816 10.4371C7.76237 10.4371 7.78699 10.4328 7.81119 10.4237C7.94505 10.3732 8.0783 10.3142 8.20719 10.248C8.30878 10.1959 8.34912 10.0711 8.29678 9.96952C8.24443 9.86793 8.11968 9.82758 8.01809 9.87993Z" fill="#858585"/>
<path d="M9.77175 3.16075C9.69127 3.04178 9.60479 2.92613 9.51458 2.81668C9.44196 2.72854 9.31141 2.71571 9.22327 2.78854C9.13513 2.86116 9.12251 2.99151 9.19513 3.07985C9.27706 3.17937 9.35568 3.28468 9.42892 3.39268C9.46886 3.45185 9.53403 3.48351 9.60044 3.48351C9.64037 3.48351 9.68072 3.47192 9.7163 3.44792C9.81106 3.38378 9.83589 3.2553 9.77175 3.16075Z" fill="#858585"/>
<path d="M10.4137 5.7865C10.2995 5.7865 10.2068 5.88581 10.2068 6.00002C10.2068 6.12684 10.2019 6.25491 10.1921 6.38029C10.1834 6.49429 10.2685 6.59381 10.3825 6.6025C10.3879 6.60291 10.3932 6.60312 10.3986 6.60312C10.5056 6.60312 10.5964 6.52078 10.6047 6.41215C10.6152 6.27602 10.6206 6.1374 10.6206 5.99981V5.98636C10.6206 5.87236 10.5281 5.7865 10.4137 5.7865Z" fill="#858585"/>
<path d="M10.2209 7.40317C10.1125 7.36676 9.9954 7.4251 9.95877 7.53331C9.91698 7.65724 9.8696 7.78034 9.81788 7.89931C9.77236 8.004 9.82015 8.12607 9.92505 8.17158C9.95195 8.18338 9.98008 8.18876 10.0076 8.18876C10.0875 8.18876 10.1634 8.14221 10.1973 8.06441C10.2538 7.93469 10.3055 7.80021 10.351 7.6651C10.3877 7.5569 10.3293 7.43959 10.2209 7.40317Z" fill="#858585"/>
<path d="M6.9412 1.36446C6.80093 1.34812 6.65837 1.33984 6.51727 1.33984H6.50858C6.39438 1.33984 6.30603 1.43253 6.30603 1.54674C6.30603 1.66095 6.40306 1.75364 6.51727 1.75364C6.64244 1.75364 6.76906 1.76088 6.89362 1.77536C6.90169 1.7764 6.90975 1.77681 6.91782 1.77681C7.02127 1.77681 7.11086 1.69922 7.12306 1.59371C7.1361 1.48012 7.05479 1.3775 6.9412 1.36446Z" fill="#858585"/>
<path d="M3.60061 8.60026C3.53668 8.5053 3.40799 8.48047 3.31343 8.5444C3.21868 8.60833 3.19364 8.73682 3.25757 8.83157C3.33785 8.95054 3.42412 9.0664 3.51392 9.17606C3.55488 9.22592 3.61426 9.25178 3.67406 9.25178C3.72019 9.25178 3.76675 9.23647 3.80523 9.20482C3.89357 9.13219 3.9064 9.00206 3.83399 8.9135C3.75226 8.81419 3.67364 8.70868 3.60061 8.60026Z" fill="#858585"/>
<path d="M3.11319 3.82036C3.00829 3.77484 2.88664 3.82222 2.84071 3.92712C2.78381 4.05725 2.73188 4.19153 2.68615 4.32601C2.64953 4.43422 2.70746 4.55174 2.81567 4.58857C2.8376 4.59601 2.86015 4.59953 2.88209 4.59953C2.96836 4.59953 3.04884 4.54512 3.07802 4.45905C3.11981 4.33553 3.1676 4.21243 3.21974 4.09284C3.26588 3.98815 3.21809 3.86608 3.11319 3.82036Z" fill="#858585"/>
<path d="M6.51731 10.2463C6.38862 10.2463 6.25931 10.2387 6.1329 10.2236C6.02014 10.2116 5.91648 10.291 5.90283 10.4046C5.88938 10.518 5.97028 10.621 6.08386 10.6347C6.22662 10.6516 6.37269 10.6603 6.51752 10.6603H6.53531C6.64952 10.6603 6.73331 10.5676 6.73331 10.4534C6.73331 10.3392 6.63152 10.2463 6.51731 10.2463Z" fill="#858585"/>
<path d="M3.7957 2.51151C3.69618 2.61185 3.59915 2.71923 3.50791 2.83116C3.4355 2.91971 3.44874 3.05006 3.53729 3.12227C3.57577 3.15371 3.62212 3.16902 3.66805 3.16902C3.72805 3.16902 3.78743 3.14316 3.82839 3.09309C3.91136 2.99151 3.99908 2.89406 4.08929 2.80344C4.16977 2.72234 4.16936 2.59137 4.08846 2.51068C4.00736 2.4302 3.8766 2.43082 3.7957 2.51151Z" fill="#858585"/>
<path d="M5.23222 1.57283C5.09815 1.62311 4.9647 1.68187 4.83581 1.74766C4.73401 1.79939 4.69346 1.92415 4.74539 2.02594C4.78181 2.09773 4.85443 2.1389 4.92995 2.1389C4.9616 2.1389 4.99367 2.13166 5.02367 2.11635C5.1387 2.0578 5.25767 2.00525 5.37705 1.96056C5.48401 1.92042 5.53843 1.80125 5.49829 1.69428C5.45857 1.5869 5.33898 1.5327 5.23222 1.57283Z" fill="#858585"/>
<path d="M5.0315 9.88779C4.91771 9.83006 4.80495 9.76468 4.69654 9.69372C4.60074 9.63123 4.47288 9.65813 4.40999 9.75351C4.3475 9.8491 4.37419 9.97737 4.46978 10.0399C4.59081 10.1191 4.71681 10.1921 4.84405 10.2567C4.87405 10.272 4.90612 10.279 4.93757 10.279C5.01309 10.279 5.08571 10.2376 5.12233 10.1659C5.17405 10.0641 5.1333 9.93951 5.0315 9.88779Z" fill="#858585"/>
</svg>
