<svg width="375" height="44" viewBox="0 0 375 44" fill="none" xmlns="http://www.w3.org/2000/svg">
<path d="M36.6541 28.0889C39.342 28.0889 40.9387 25.9868 40.9387 22.4272C40.9387 21.0869 40.6824 19.959 40.1917 19.0874C39.4812 17.7324 38.2581 17 36.7126 17C34.4128 17 32.7869 18.5454 32.7869 20.7134C32.7869 22.7495 34.2517 24.229 36.2659 24.229C37.5037 24.229 38.5071 23.6504 39.0051 22.647H39.0271C39.0271 22.647 39.0564 22.647 39.0637 22.647C39.0784 22.647 39.1296 22.647 39.1296 22.647C39.1296 25.064 38.2141 26.5068 36.6687 26.5068C35.7605 26.5068 35.0574 26.0088 34.8157 25.2104H32.9333C33.2483 26.9463 34.7205 28.0889 36.6541 28.0889ZM36.72 22.7275C35.5042 22.7275 34.6399 21.8633 34.6399 20.6548C34.6399 19.4756 35.5481 18.5747 36.7273 18.5747C37.9065 18.5747 38.8147 19.4902 38.8147 20.6841C38.8147 21.8633 37.9285 22.7275 36.72 22.7275Z" fill="#070707"/>
<path d="M44.0298 27.9863C44.7256 27.9863 45.2017 27.4883 45.2017 26.8291C45.2017 26.1626 44.7256 25.6719 44.0298 25.6719C43.3414 25.6719 42.858 26.1626 42.858 26.8291C42.858 27.4883 43.3414 27.9863 44.0298 27.9863ZM44.0298 22.4932C44.7256 22.4932 45.2017 22.0024 45.2017 21.3433C45.2017 20.6768 44.7256 20.186 44.0298 20.186C43.3414 20.186 42.858 20.6768 42.858 21.3433C42.858 22.0024 43.3414 22.4932 44.0298 22.4932Z" fill="#070707"/>
<path d="M52.0575 27.8325H53.8666V25.8623H55.2948V24.2656H53.8666V17.2637H51.2005C49.3329 20.0762 47.846 22.4272 46.8939 24.1777V25.8623H52.0575V27.8325ZM48.6444 24.1997C49.8749 22.0317 50.9735 20.2959 51.9842 18.8018H52.0868V24.3096H48.6444V24.1997Z" fill="#070707"/>
<path d="M59.3234 27.8325H61.213V17.2637H59.3307L56.5695 19.1973V21.0137L59.1989 19.168H59.3234V27.8325Z" fill="#070707"/>
<path fill-rule="evenodd" clip-rule="evenodd" d="M309.4 17H308.4C307.847 17 307.4 17.4477 307.4 18V26.6667C307.4 27.219 307.847 27.6667 308.4 27.6667H309.4C309.952 27.6667 310.4 27.219 310.4 26.6667V18C310.4 17.4477 309.952 17 309.4 17ZM303.733 19.3333H304.733C305.285 19.3333 305.733 19.781 305.733 20.3333V26.6667C305.733 27.219 305.285 27.6667 304.733 27.6667H303.733C303.181 27.6667 302.733 27.219 302.733 26.6667V20.3333C302.733 19.781 303.181 19.3333 303.733 19.3333ZM300.066 21.6667H299.066C298.514 21.6667 298.066 22.1144 298.066 22.6667V26.6667C298.066 27.219 298.514 27.6667 299.066 27.6667H300.066C300.619 27.6667 301.066 27.219 301.066 26.6667V22.6667C301.066 22.1144 300.619 21.6667 300.066 21.6667ZM295.4 23.6667H294.4C293.847 23.6667 293.4 24.1144 293.4 24.6667V26.6667C293.4 27.219 293.847 27.6667 294.4 27.6667H295.4C295.952 27.6667 296.4 27.219 296.4 26.6667V24.6667C296.4 24.1144 295.952 23.6667 295.4 23.6667Z" fill="black"/>
<path fill-rule="evenodd" clip-rule="evenodd" d="M323.036 19.2773C325.252 19.2774 327.383 20.1289 328.989 21.6557C329.11 21.7735 329.303 21.772 329.423 21.6523L330.579 20.4857C330.639 20.4249 330.673 20.3427 330.672 20.2571C330.672 20.1715 330.637 20.0897 330.576 20.0297C326.361 15.9901 319.711 15.9901 315.496 20.0297C315.435 20.0896 315.4 20.1715 315.4 20.257C315.399 20.3426 315.433 20.4249 315.493 20.4857L316.649 21.6523C316.768 21.7722 316.962 21.7737 317.083 21.6557C318.689 20.1288 320.82 19.2773 323.036 19.2773ZM323.036 23.073C324.254 23.0729 325.428 23.5255 326.33 24.3427C326.452 24.4586 326.645 24.4561 326.764 24.337L327.918 23.1703C327.979 23.1091 328.013 23.0261 328.012 22.9399C328.011 22.8536 327.976 22.7713 327.914 22.7113C325.165 20.1549 320.909 20.1549 318.161 22.7113C318.099 22.7713 318.064 22.8536 318.063 22.9399C318.062 23.0262 318.096 23.1092 318.157 23.1703L319.311 24.337C319.43 24.4561 319.623 24.4586 319.745 24.3427C320.646 23.526 321.82 23.0735 323.036 23.073ZM325.349 25.6268C325.351 25.7133 325.317 25.7967 325.255 25.8573L323.258 27.873C323.199 27.9322 323.12 27.9656 323.036 27.9656C322.953 27.9656 322.873 27.9322 322.815 27.873L320.817 25.8573C320.755 25.7967 320.721 25.7132 320.723 25.6267C320.725 25.5402 320.762 25.4583 320.827 25.4003C322.102 24.3214 323.97 24.3214 325.246 25.4003C325.31 25.4584 325.347 25.5403 325.349 25.6268Z" fill="black"/>
<path opacity="0.35" d="M338.339 17.5H355.005C356.202 17.5 357.172 18.47 357.172 19.6667V25.6667C357.172 26.8633 356.202 27.8333 355.005 27.8333H338.339C337.142 27.8333 336.172 26.8633 336.172 25.6667V19.6667C336.172 18.47 337.142 17.5 338.339 17.5Z" stroke="black"/>
<path opacity="0.4" d="M358.672 20.6667V24.6667C359.477 24.3279 360 23.5398 360 22.6667C360 21.7935 359.477 21.0054 358.672 20.6667" fill="black"/>
<path d="M337.672 20.3333C337.672 19.597 338.269 19 339.005 19H354.339C355.075 19 355.672 19.597 355.672 20.3333V25C355.672 25.7364 355.075 26.3333 354.339 26.3333H339.005C338.269 26.3333 337.672 25.7364 337.672 25V20.3333Z" fill="black"/>
</svg>
