<svg width="67" height="44" viewBox="0 0 67 44" fill="none" xmlns="http://www.w3.org/2000/svg">
<path fill-rule="evenodd" clip-rule="evenodd" d="M16 17H15C14.4477 17 14 17.4477 14 18V26.6667C14 27.219 14.4477 27.6667 15 27.6667H16C16.5523 27.6667 17 27.219 17 26.6667V18C17 17.4477 16.5523 17 16 17ZM10.3333 19.3333H11.3333C11.8856 19.3333 12.3333 19.781 12.3333 20.3333V26.6667C12.3333 27.219 11.8856 27.6667 11.3333 27.6667H10.3333C9.78105 27.6667 9.33333 27.219 9.33333 26.6667V20.3333C9.33333 19.781 9.78105 19.3333 10.3333 19.3333ZM6.66667 21.6667H5.66667C5.11438 21.6667 4.66667 22.1144 4.66667 22.6667V26.6667C4.66667 27.219 5.11438 27.6667 5.66667 27.6667H6.66667C7.21895 27.6667 7.66667 27.219 7.66667 26.6667V22.6667C7.66667 22.1144 7.21895 21.6667 6.66667 21.6667ZM2 23.6667H1C0.447715 23.6667 0 24.1144 0 24.6667V26.6667C0 27.219 0.447715 27.6667 1 27.6667H2C2.55228 27.6667 3 27.219 3 26.6667V24.6667C3 24.1144 2.55228 23.6667 2 23.6667Z" fill="black"/>
<path fill-rule="evenodd" clip-rule="evenodd" d="M29.6366 19.2773C31.8525 19.2774 33.9837 20.1289 35.5896 21.6557C35.7105 21.7735 35.9038 21.772 36.0229 21.6523L37.1789 20.4857C37.2392 20.4249 37.2729 20.3427 37.2724 20.2571C37.2719 20.1715 37.2373 20.0897 37.1763 20.0297C32.9612 15.9901 26.3114 15.9901 22.0963 20.0297C22.0352 20.0896 22.0006 20.1715 22 20.257C21.9994 20.3426 22.033 20.4249 22.0933 20.4857L23.2496 21.6523C23.3686 21.7722 23.5621 21.7737 23.6829 21.6557C25.2891 20.1288 27.4205 19.2773 29.6366 19.2773ZM29.6366 23.073C30.8541 23.0729 32.0281 23.5255 32.9306 24.3427C33.0527 24.4586 33.2449 24.4561 33.3639 24.337L34.5186 23.1703C34.5794 23.1091 34.6132 23.0261 34.6123 22.9399C34.6114 22.8536 34.576 22.7713 34.5139 22.7113C31.7657 20.1549 27.5098 20.1549 24.7616 22.7113C24.6995 22.7713 24.6641 22.8536 24.6633 22.9399C24.6625 23.0262 24.6963 23.1092 24.7573 23.1703L25.9116 24.337C26.0306 24.4561 26.2229 24.4586 26.3449 24.3427C27.2468 23.526 28.4199 23.0735 29.6366 23.073ZM31.9496 25.6268C31.9514 25.7133 31.9174 25.7967 31.8556 25.8573L29.8583 27.873C29.7997 27.9322 29.7199 27.9656 29.6366 27.9656C29.5533 27.9656 29.4735 27.9322 29.4149 27.873L27.4173 25.8573C27.3556 25.7967 27.3216 25.7132 27.3234 25.6267C27.3253 25.5402 27.3627 25.4583 27.4269 25.4003C28.7025 24.3214 30.5707 24.3214 31.8463 25.4003C31.9104 25.4584 31.9478 25.5403 31.9496 25.6268Z" fill="black"/>
<path opacity="0.35" d="M44.939 17.5H61.6057C62.8023 17.5 63.7723 18.47 63.7723 19.6667V25.6667C63.7723 26.8633 62.8023 27.8333 61.6057 27.8333H44.939C43.7424 27.8333 42.7723 26.8633 42.7723 25.6667V19.6667C42.7723 18.47 43.7424 17.5 44.939 17.5Z" stroke="black"/>
<path opacity="0.4" d="M65.2723 20.6667V24.6667C66.0771 24.3279 66.6004 23.5398 66.6004 22.6667C66.6004 21.7935 66.0771 21.0054 65.2723 20.6667" fill="black"/>
<path d="M44.2723 20.3333C44.2723 19.597 44.8693 19 45.6057 19H60.939C61.6754 19 62.2723 19.597 62.2723 20.3333V25C62.2723 25.7364 61.6754 26.3333 60.939 26.3333H45.6057C44.8693 26.3333 44.2723 25.7364 44.2723 25V20.3333Z" fill="black"/>
</svg>
