<svg width="51" height="28" viewBox="0 0 51 28" fill="none" xmlns="http://www.w3.org/2000/svg">
<path d="M49.0588 17.3392C49.039 17.3392 49.0228 17.323 49.0228 17.3031V16.6626L48.2399 15.6836V12.084L49.0228 10.5578V9.66696C49.0228 8.92755 48.8261 8.20152 48.4512 7.56303L45.2186 2.05347C44.472 0.781637 43.1075 0 41.6317 0H23.3554C22.6809 0 22.028 0.244068 21.5193 0.686893L10.1696 10.5609V24.4058H50.1031C50.5985 24.4058 51 24.0042 51 23.5088V19.2804C51 18.2082 50.131 17.3392 49.0588 17.3392V17.3392Z" fill="#F79595"/>
<path d="M10.1695 10.5609H4.65275C2.99349 10.5609 1.53794 11.4307 0.714286 12.7385L1.17235 13.1974L0.904598 15.3395L0 15.8531V23.514C0 24.0062 0.398542 24.4058 0.891828 24.4058H10.1695L15.9969 22.2744V14.2955L10.1695 10.5609Z" fill="#F79595"/>
<path d="M10.1696 16.805V24.4058L15.2799 22.5367C14.9758 19.7145 12.8877 17.4201 10.1696 16.805V16.805Z" fill="#F47C7C"/>
<path d="M8.71087 16.6412C8.6636 16.6412 8.61644 16.6418 8.56948 16.6428C7.86014 16.658 7.39507 15.9165 7.69928 15.2754C8.44569 13.7023 10.0483 12.6141 11.9049 12.6141H13.3733L10.1695 10.5609H4.65275C2.99319 10.5609 1.53753 11.4304 0.713874 12.7381L1.17235 13.1974L0.904598 15.3395L0 15.8531V23.514C0 24.0062 0.398542 24.4058 0.891828 24.4058H7.25213V22.2744H15.2453C14.7725 19.0915 12.0232 16.6412 8.71087 16.6412V16.6412Z" fill="#EE6161"/>
<path d="M11.9049 12.6141H20.5264C21.9634 12.6141 23.3375 12.0248 24.328 10.9838L34.2295 0.577526C34.5401 0.307094 34.9049 0.111942 35.2951 0H23.3554C22.6809 0 22.028 0.244068 21.5193 0.686893L10.1696 10.5608V12.95C10.706 12.7341 11.2912 12.6141 11.9049 12.6141V12.6141Z" fill="#F47C7C"/>
<path d="M28.0966 24.0217C27.9847 24.0217 27.8712 23.9973 27.7635 23.9457C27.3788 23.7615 27.2163 23.3002 27.4005 22.9156L28.3282 20.9785L29.7769 17.747C29.7934 17.7102 29.8018 17.6712 29.8018 17.6308V7.00458C29.8018 6.57802 30.1476 6.23221 30.5741 6.23221C31.0007 6.23221 31.3465 6.57802 31.3465 7.00458V17.6308C31.3465 17.8904 31.2926 18.1421 31.1865 18.379L29.7337 21.6193C29.731 21.6252 29.7283 21.6311 29.7254 21.6369L28.7936 23.5829C28.661 23.8599 28.3846 24.0217 28.0966 24.0217V24.0217Z" fill="#F47C7C"/>
<path d="M51 21.3029V23.5088C51 24.0042 50.5984 24.4058 50.103 24.4058H10.1695H0.891828C0.398542 24.4058 0 24.0062 0 23.514V21.3029H51Z" fill="#EE6161"/>
<path d="M8.71087 21.3029H0V23.514C0 24.0062 0.398542 24.4058 0.891828 24.4058H8.71087V21.3029Z" fill="#E94444"/>
<path d="M15.026 21.3029H11.2694V24.4058H15.2154C15.282 24.0299 15.3188 23.6438 15.3188 23.2491C15.3189 22.572 15.2161 21.9185 15.026 21.3029V21.3029Z" fill="#E94444"/>
<path d="M8.71092 27.7974C11.2229 27.7974 13.2592 25.7611 13.2592 23.2491C13.2592 20.7371 11.2229 18.7008 8.71092 18.7008C6.19895 18.7008 4.1626 20.7371 4.1626 23.2491C4.1626 25.7611 6.19895 27.7974 8.71092 27.7974Z" fill="#736572"/>
<path d="M42.5541 16.6413C38.9105 16.6413 35.9462 19.6056 35.9462 23.2492C35.9462 23.644 35.9829 24.0301 36.0496 24.4059H49.0587C49.1253 24.0301 49.1621 23.644 49.1621 23.2492C49.1621 19.6056 46.1979 16.6413 42.5541 16.6413V16.6413Z" fill="#F47C7C"/>
<path d="M35.9463 23.2491C35.9463 23.6438 35.9831 24.0299 36.0497 24.4058H49.0587C49.1254 24.0299 49.1621 23.6438 49.1621 23.2491C49.1621 22.572 49.0594 21.9185 48.8692 21.3029H36.2391C36.0491 21.9185 35.9463 22.572 35.9463 23.2491V23.2491Z" fill="#E94444"/>
<path d="M42.5542 27.7974C45.0661 27.7974 47.1025 25.7611 47.1025 23.2491C47.1025 20.7371 45.0661 18.7008 42.5542 18.7008C40.0422 18.7008 38.0059 20.7371 38.0059 23.2491C38.0059 25.7611 40.0422 27.7974 42.5542 27.7974Z" fill="#736572"/>
<path d="M8.71092 22.9203C8.71092 21.3567 9.5009 19.9776 10.7025 19.159C10.1012 18.8657 9.425 18.7009 8.71092 18.7009C6.19897 18.7009 4.1626 20.7373 4.1626 23.2492C4.1626 25.7612 6.19897 27.7976 8.71092 27.7976C9.65929 27.7976 10.5406 27.5068 11.2694 27.0103C9.75537 26.2718 8.71092 24.7182 8.71092 22.9203V22.9203Z" fill="#615260"/>
<path d="M42.5542 22.9203C42.5542 21.3567 43.3442 19.9776 44.5457 19.159C43.9444 18.8657 43.2683 18.7009 42.5542 18.7009C40.0422 18.7009 38.0059 20.7373 38.0059 23.2492C38.0059 25.7612 40.0422 27.7976 42.5542 27.7976C43.5025 27.7976 44.3839 27.5068 45.1127 27.0103C43.5986 26.2718 42.5542 24.7182 42.5542 22.9203V22.9203Z" fill="#615260"/>
<path d="M29.0287 3.08948H23.6592C23.5336 3.08948 23.4121 3.13479 23.3173 3.21718L15.2016 10.278C15.0904 10.3748 15.1588 10.5578 15.3063 10.5578H29.0287L30.7704 9.81876V4.8028L29.0287 3.08948Z" fill="#D5EAFF"/>
<path d="M30.4805 4.51754L29.0287 3.08948H23.6592C23.5336 3.08948 23.4121 3.13479 23.3173 3.21718L15.2016 10.278C15.0904 10.3748 15.1588 10.5578 15.3063 10.5578H24.7333L30.4805 4.51754Z" fill="#B8DDFF"/>
<path d="M41.6379 3.08948H41.6317H32.1192L31.1112 4.38881V9.81887L32.1192 10.5579H41.3598C41.7903 10.5579 42.1384 10.2098 42.1384 9.77932V3.59213C42.1384 3.31501 41.9149 3.08948 41.6379 3.08948Z" fill="#D5EAFF"/>
<path d="M29.0288 3.08948H32.1193V10.5578H29.0288V3.08948Z" fill="#F47C7C"/>
<path d="M29.0288 3.08948V6.04332L31.8394 3.08948H29.0288Z" fill="#EE6161"/>
<path d="M3.97409 13.1941C4.25627 13.4763 4.43031 13.8656 4.43031 14.296C4.43031 15.1559 3.73311 15.8531 2.87218 15.8531H0V15.2146C0 14.3043 0.261575 13.4547 0.713668 12.7379H2.87218C3.30265 12.7379 3.69192 12.912 3.97409 13.1941V13.1941Z" fill="#FEDF30"/>
<path d="M27.8099 14.0838H26.3256C25.899 14.0838 25.5532 13.738 25.5532 13.3114C25.5532 12.8849 25.899 12.5391 26.3256 12.5391H27.8099C28.2364 12.5391 28.5822 12.8849 28.5822 13.3114C28.5822 13.738 28.2364 14.0838 27.8099 14.0838Z" fill="#F47C7C"/>
<path d="M48.4726 12.3746H46.4831L45.8519 13.6102V15.815C45.8519 16.2826 46.2319 16.6626 46.7005 16.6626H49.0228V13.6102L48.4726 12.3746Z" fill="#E94444"/>
<path d="M8.71092 24.708C7.90653 24.708 7.25208 24.0536 7.25208 23.2491C7.25208 22.4446 7.90643 21.7903 8.71092 21.7903C9.51542 21.7903 10.1698 22.4447 10.1698 23.2491C10.1698 24.0535 9.51532 24.708 8.71092 24.708Z" fill="#F9F7F8"/>
<path d="M9.05789 24.6645C8.83442 24.1274 8.71105 23.5383 8.71105 22.9202C8.71105 22.5327 8.75986 22.1565 8.8511 21.7974C8.80497 21.793 8.75831 21.7903 8.71105 21.7903C7.90665 21.7903 7.2522 22.4447 7.2522 23.2491C7.2522 24.0535 7.90655 24.708 8.71105 24.708C8.83071 24.708 8.94646 24.6919 9.05789 24.6645V24.6645Z" fill="#D7D0D6"/>
<path d="M42.5542 24.708C41.7498 24.708 41.0953 24.0536 41.0953 23.2491C41.0953 22.4446 41.7497 21.7903 42.5542 21.7903C43.3587 21.7903 44.0131 22.4447 44.0131 23.2491C44.0131 24.0535 43.3586 24.708 42.5542 24.708Z" fill="#F9F7F8"/>
<path d="M42.9018 24.6662C42.6784 24.129 42.5542 23.5383 42.5542 22.9203C42.5542 22.5328 42.6021 22.1566 42.6934 21.7974C42.6473 21.7929 42.6014 21.7904 42.5542 21.7904C41.7498 21.7904 41.0953 22.4448 41.0953 23.2492C41.0953 24.0536 41.7497 24.7081 42.5542 24.7081C42.6739 24.708 42.7905 24.6935 42.9018 24.6662V24.6662Z" fill="#D7D0D6"/>
<path d="M49.0228 10.5578V13.6102H45.8519V11.4063C45.8519 10.9378 46.2319 10.5578 46.7005 10.5578H49.0228Z" fill="#FDB441"/>
</svg>
