<svg width="17" height="19" viewBox="0 0 17 19" fill="none" xmlns="http://www.w3.org/2000/svg">
<path fill-rule="evenodd" clip-rule="evenodd" d="M7.49999 15C3.35786 15 0 11.6421 0 7.49999C0 3.35786 3.35786 0 7.49999 0C11.6421 0 15 3.35786 15 7.49999C15 9.48045 14.2323 11.2816 12.9784 12.6222L16.7808 17.3753C17.1258 17.8065 17.0559 18.4358 16.6247 18.7808C16.1934 19.1258 15.5641 19.0559 15.2191 18.6247L11.4304 13.8888C10.2875 14.5935 8.94122 15 7.49999 15ZM7.49999 13C10.5375 13 13 10.5375 13 7.49999C13 4.46243 10.5375 2 7.49999 2C4.46243 2 2 4.46243 2 7.49999C2 10.5375 4.46243 13 7.49999 13Z" fill="black"/>
<mask id="mask0_0_134" style="mask-type:alpha" maskUnits="userSpaceOnUse" x="0" y="0" width="17" height="19">
<path fill-rule="evenodd" clip-rule="evenodd" d="M7.49999 15C3.35786 15 0 11.6421 0 7.49999C0 3.35786 3.35786 0 7.49999 0C11.6421 0 15 3.35786 15 7.49999C15 9.48045 14.2323 11.2816 12.9784 12.6222L16.7808 17.3753C17.1258 17.8065 17.0559 18.4358 16.6247 18.7808C16.1934 19.1258 15.5641 19.0559 15.2191 18.6247L11.4304 13.8888C10.2875 14.5935 8.94122 15 7.49999 15ZM7.49999 13C10.5375 13 13 10.5375 13 7.49999C13 4.46243 10.5375 2 7.49999 2C4.46243 2 2 4.46243 2 7.49999C2 10.5375 4.46243 13 7.49999 13Z" fill="white"/>
</mask>
<g mask="url(#mask0_0_134)">
<rect x="-5.99999" y="-4.99999" width="30" height="30" fill="#0880AE"/>
</g>
</svg>
