<svg width="15" height="15" viewBox="0 0 15 15" fill="none" xmlns="http://www.w3.org/2000/svg">
<path d="M6.0305 2.15059C4.72007 0.840826 2.1557 0.68895 0.340564 0.68895C0.152578 0.68895 0 0.841496 0 1.02948C0 2.84462 0.151206 5.40898 1.46164 6.71945C2.01471 7.27252 2.86269 7.51976 3.70316 7.51976C4.61653 7.51976 5.52172 7.22757 6.0305 6.71878C7.00654 5.74275 7.18568 3.30507 6.0305 2.15059ZM5.54898 6.2379C4.82019 6.96599 2.79663 7.09063 1.9439 6.2379C0.88613 5.18016 0.702901 3.03126 0.683139 1.37209C2.34231 1.39185 4.49121 1.57505 5.54895 2.63282C6.40172 3.48555 6.27707 5.50981 5.54898 6.2379Z" fill="#858585"/>
<path d="M14.6595 2.03616C12.8444 2.03616 10.28 2.18737 8.96955 3.49781C7.8144 4.65228 7.99351 7.08996 8.96955 8.066C9.47833 8.57411 10.3829 8.86631 11.2962 8.86631C12.1367 8.86631 12.984 8.61974 13.5384 8.0667C14.8482 6.75626 15.0001 4.1919 15.0001 2.37673C15.0001 2.18874 14.8475 2.03616 14.6595 2.03616ZM13.0555 7.58444C12.2028 8.43718 10.1785 8.31254 9.45043 7.58444C8.72234 6.85635 8.59769 4.83209 9.45043 3.97936C10.5082 2.92159 12.6571 2.73839 14.3162 2.71863C14.2965 4.37848 14.1133 6.52738 13.0555 7.58444Z" fill="#858585"/>
<path d="M12.2 4.98399C12.1196 4.81303 11.8894 4.75447 11.7198 4.83346C9.10776 6.06149 7.82456 8.20289 7.24151 10.4042C6.52022 5.72364 4.43399 4.29674 3.54923 3.69124C3.43889 3.61564 3.35307 3.56047 3.30541 3.51348C3.17259 3.38066 2.95667 3.38066 2.82385 3.51348C2.69104 3.64629 2.69104 3.86221 2.82385 3.99503C2.89128 4.06179 3.00775 4.14556 3.16509 4.25316C4.16223 4.93495 6.81104 6.74738 6.81104 13.9705C6.81104 14.1585 6.96362 14.3111 7.1516 14.3111C7.33959 14.3111 7.49217 14.1585 7.49217 13.9712C7.49217 11.0527 8.27613 7.20511 12.0099 5.45057C12.0099 5.4499 12.0651 5.42401 12.0651 5.42401C12.2347 5.34362 12.2803 5.15426 12.2 4.98399Z" fill="#858585"/>
</svg>
