<svg width="21" height="21" viewBox="0 0 21 21" fill="none" xmlns="http://www.w3.org/2000/svg">
<path d="M19.7459 18.1062V10.7793C19.7459 10.2696 19.6419 9.76517 19.4402 9.29703C19.2385 8.82889 18.9433 8.40685 18.5728 8.05678L11.67 1.53316C11.3223 1.20447 10.862 1.02134 10.3836 1.02134C9.90516 1.02134 9.44488 1.20447 9.09722 1.53316L2.19443 8.05678C1.82389 8.40685 1.52873 8.82889 1.32701 9.29703C1.1253 9.76517 1.02128 10.2696 1.02134 10.7793V18.1062C1.02134 18.6028 1.21861 19.0791 1.56977 19.4302C1.92092 19.7814 2.39718 19.9787 2.89379 19.9787H17.8734C18.37 19.9787 18.8463 19.7814 19.1974 19.4302C19.5486 19.0791 19.7459 18.6028 19.7459 18.1062Z" stroke="white" stroke-width="2" stroke-linecap="round" stroke-linejoin="round"/>
</svg>
