<svg width="20" height="19" viewBox="0 0 20 19" fill="none" xmlns="http://www.w3.org/2000/svg">
<path d="M3.85135 4.79288H16.8338C17.0969 4.79289 17.357 4.84802 17.5975 4.95472C17.8379 5.06141 18.0533 5.21731 18.2298 5.41236C18.4064 5.60741 18.54 5.83727 18.6223 6.08715C18.7045 6.33702 18.7335 6.60135 18.7073 6.86311L18.1424 12.5118C18.096 12.9764 17.8785 13.4071 17.5323 13.7205C17.1862 14.0338 16.7359 14.2073 16.269 14.2073H7.2782C6.84276 14.2075 6.42071 14.0567 6.08393 13.7807C5.74714 13.5047 5.51644 13.1205 5.43109 12.6935L3.85135 4.79288Z" stroke="white" stroke-width="2" stroke-linejoin="round"/>
<path d="M3.85135 4.79279L3.08878 1.7397C3.03778 1.53611 2.92022 1.35541 2.75477 1.22629C2.58931 1.09717 2.38546 1.02703 2.17559 1.02703H1.02703" stroke="white" stroke-width="2" stroke-linecap="round" stroke-linejoin="round"/>
<path d="M6.67568 17.973H8.55856" stroke="white" stroke-width="2" stroke-linecap="round" stroke-linejoin="round"/>
<path d="M14.2072 17.973H16.0901" stroke="white" stroke-width="2" stroke-linecap="round" stroke-linejoin="round"/>
</svg>
