<svg width="20" height="20" viewBox="0 0 20 20" fill="none" xmlns="http://www.w3.org/2000/svg">
<path d="M5.41982 15.4962V14.5802C5.41982 13.3654 5.90238 12.2005 6.76133 11.3415C7.62028 10.4826 8.78526 10 10 10C11.2147 10 12.3797 10.4826 13.2387 11.3415C14.0976 12.2005 14.5802 13.3654 14.5802 14.5802V15.4962" stroke="white" stroke-width="1.65" stroke-linecap="round"/>
<path d="M10 10.0001C10.7289 10.0001 11.4279 9.71057 11.9433 9.1952C12.4586 8.67983 12.7482 7.98084 12.7482 7.25199C12.7482 6.52315 12.4586 5.82416 11.9433 5.30879C11.4279 4.79342 10.7289 4.50389 10 4.50389C9.27121 4.50389 8.57222 4.79342 8.05685 5.30879C7.54148 5.82416 7.25194 6.52315 7.25194 7.25199C7.25194 7.98084 7.54148 8.67983 8.05685 9.1952C8.57222 9.71057 9.27121 10.0001 10 10.0001V10.0001Z" stroke="white" stroke-width="1.65" stroke-linecap="round" stroke-linejoin="round"/>
<path d="M10 19.1604C15.0591 19.1604 19.1604 15.0591 19.1604 10C19.1604 4.94088 15.0591 0.839649 10 0.839649C4.94088 0.839649 0.839649 4.94088 0.839649 10C0.839649 15.0591 4.94088 19.1604 10 19.1604Z" stroke="white" stroke-width="1.65"/>
</svg>
