<svg width="260" height="82" viewBox="0 0 260 82" fill="none" xmlns="http://www.w3.org/2000/svg">
<path d="M3.86341 4.4656L5.55724 8.55764C10.9211 21.5159 24.1792 29.3931 38.1248 27.9074V27.9074C52.8635 26.3372 66.715 35.2151 71.4439 49.2626L73.1916 54.4542C78.1546 69.1973 91.5121 79.4973 107.033 80.5491L111.508 80.8524C123.038 81.6338 134.429 77.9653 143.336 70.6022L154.268 61.5652C184.306 36.7335 228.49 39.6021 255.065 68.1095V68.1095" stroke="#14A38B" stroke-width="2"/>
<path fill-rule="evenodd" clip-rule="evenodd" d="M2.27571 4.56191C3.53255 4.56191 4.55142 3.54069 4.55142 2.28095C4.55142 1.02122 3.53255 0 2.27571 0C1.01887 0 0 1.02122 0 2.28095C0 3.54069 1.01887 4.56191 2.27571 4.56191Z" fill="#14A38B"/>
<path fill-rule="evenodd" clip-rule="evenodd" d="M44.9453 29.0822C46.2021 29.0822 47.221 28.0609 47.221 26.8012C47.221 25.5415 46.2021 24.5202 44.9453 24.5202C43.6885 24.5202 42.6696 25.5415 42.6696 26.8012C42.6696 28.0609 43.6885 29.0822 44.9453 29.0822Z" fill="#14A38B"/>
<path fill-rule="evenodd" clip-rule="evenodd" d="M172.385 52.4619C173.642 52.4619 174.661 51.4407 174.661 50.181C174.661 48.9212 173.642 47.9 172.385 47.9C171.128 47.9 170.109 48.9212 170.109 50.181C170.109 51.4407 171.128 52.4619 172.385 52.4619Z" fill="#14A38B"/>
<path fill-rule="evenodd" clip-rule="evenodd" d="M215.055 47.3298C216.312 47.3298 217.33 46.3086 217.33 45.0488C217.33 43.7891 216.312 42.7679 215.055 42.7679C213.798 42.7679 212.779 43.7891 212.779 45.0488C212.779 46.3086 213.798 47.3298 215.055 47.3298Z" fill="#14A38B"/>
<path fill-rule="evenodd" clip-rule="evenodd" d="M257.724 71.2798C258.981 71.2798 260 70.2586 260 68.9989C260 67.7391 258.981 66.7179 257.724 66.7179C256.467 66.7179 255.449 67.7391 255.449 68.9989C255.449 70.2586 256.467 71.2798 257.724 71.2798Z" fill="#14A38B"/>
<path fill-rule="evenodd" clip-rule="evenodd" d="M130.285 80.9739C131.541 80.9739 132.56 79.9527 132.56 78.6929C132.56 77.4332 131.541 76.412 130.285 76.412C129.028 76.412 128.009 77.4332 128.009 78.6929C128.009 79.9527 129.028 80.9739 130.285 80.9739Z" fill="#14A38B"/>
<path fill-rule="evenodd" clip-rule="evenodd" d="M87.6149 76.9822C88.8717 76.9822 89.8906 75.961 89.8906 74.7012C89.8906 73.4415 88.8717 72.4203 87.6149 72.4203C86.358 72.4203 85.3392 73.4415 85.3392 74.7012C85.3392 75.961 86.358 76.9822 87.6149 76.9822Z" fill="#14A38B"/>
</svg>
